<?xml version="1.0" encoding="UTF-8"?>
<!DOCTYPE svg PUBLIC "-//W3C//DTD SVG 1.1//EN" "http://www.w3.org/Graphics/SVG/1.1/DTD/svg11.dtd">
<!-- Creator: CorelDRAW 2019 (64-Bit) -->
<svg xmlns="http://www.w3.org/2000/svg" xml:space="preserve" width="700px" height="289px" version="1.1"
     style="shape-rendering:geometricPrecision; text-rendering:geometricPrecision; image-rendering:optimizeQuality; fill-rule:evenodd; clip-rule:evenodd"
     viewBox="0 0 700 280"
     xmlns:xlink="http://www.w3.org/1999/xlink">
 <defs>
  <style type="text/css">
   <![CDATA[
    .fil4 {fill:#A7D331}
    .fil1 {fill:#F6603F}
    .fil2 {fill:#FAA63A}
    .fil3 {fill:#FBEA2A}
    .fil0 {fill:white}
            .fil1 {
        animation-name: fil1;
        animation-duration: 1.2s;
        animation-timing-function: linear;
        animation-iteration-count: infinite;
        //animation-direction: alternate;
        }
        .fil2 {
        animation-name: fil2;
        animation-duration: 1.2s;
        animation-timing-function: linear;
        //animation-direction: alternate;
        animation-iteration-count: infinite;
        }
                .fil3 {
        animation-name: fil3;
        animation-duration: 1.2s;
        animation-timing-function: linear;
        //animation-direction: alternate;
        animation-iteration-count: infinite;
        }
                .fil4 {
        animation-name: fil4;
        animation-duration: 1.2s;
        animation-timing-function: linear;
        //animation-direction: alternate;
        animation-iteration-count: infinite;
        }
        @keyframes fil1 {
        0% {    opacity: 0;  }
        10% {    opacity: 0;   }
        20% {    opacity: 1;   }
        30% {    opacity: 1;   }
        40% {    opacity: 1;   }
        50% {    opacity: 1;   }
        60% {    opacity: 1;   }
        70% {    opacity: 1;   }
        80% {    opacity: 1;   }
        90% {    opacity: 0;   }
        100% {    opacity: 0;   }
        }
        @keyframes fil2 {
        0% {    opacity: 0;  }
        10% {    opacity: 0;   }
        20% {    opacity: 0;   }
        30% {    opacity: 1;   }
        40% {    opacity: 1;   }
        50% {    opacity: 1;   }
        60% {    opacity: 1;   }
        70% {    opacity: 1;   }
        80% {    opacity: 0;   }
        90% {    opacity: 0;   }
        100% {    opacity: 0;   }
        }
                @keyframes fil3 {
        0% {    opacity: 0;  }
        10% {    opacity: 0;   }
        20% {    opacity: 0;   }
        30% {    opacity: 0;   }
        40% {    opacity: 1;   }
        50% {    opacity: 1;   }
        60% {    opacity: 1;   }
        70% {    opacity: 0;   }
        80% {    opacity: 0;   }
        90% {    opacity: 0;   }
        100% {    opacity: 0;   }
        }
                @keyframes fil4 {
        0% {    opacity: 0;  }
        10% {    opacity: 0;   }
        20% {    opacity: 0;   }
        30% {    opacity: 0;   }
        40% {    opacity: 0;   }
        50% {    opacity: 1;   }
        60% {    opacity: 0;   }
        70% {    opacity: 0;   }
        80% {    opacity: 0;   }
        90% {    opacity: 0;   }
        100% {    opacity: 0;   }
        }
   ]]>
  </style>

 </defs>
    <text>ресторан клуб</text>
    <g id="Слой_x0020_1">
  <metadata id="CorelCorpID_0Corel-Layer"/>
        <path class="fil0"
              d="M103.64 112.49l0 28.48c0,1.49 -1.5,2.99 -3,2.99l-37.07 0 0 113.42c0,1.5 -1.5,3 -3.01,3l-28.05 0c-1.5,0 -3,-1.5 -3,-3l0 -113.92 -41.08 0c-1.5,0 -3.01,-1 -3.01,-2.99l0 -27.98c0,-1.5 1.51,-3 3.01,-3l112.21 0c1.5,0 3,1 3,3zm126.24 58.95l0 85.44c0,1.5 -1.51,3 -3.01,3l-28.55 0c-1.5,0 -3.01,-1.5 -3.01,-3l0 -30.98c0,-1.5 -1.5,-3 -3,-3l-39.08 0c-1.5,0 -3,1.5 -3,3l0 30.98c0,1.5 -1.5,3 -3.01,3l-28.55 0c-1.5,0 -3.01,-1.5 -3.01,-3l0 -86.94c0,-6.99 1.01,-21.48 7.52,-34.97 9.02,-19.98 26.55,-30.48 49.09,-30.48 36.57,-0.5 57.61,24.98 57.61,66.95zm-37.07 17.99c1.5,0 3.01,-1.5 3.01,-3l0 -14.49c0,-33.47 -15.54,-33.47 -22.55,-33.47 -9.01,0 -14.52,3.5 -18.03,10.99 -4.01,7.99 -4.51,17.99 -4.51,20.48l0 16.49c0,1.5 1.5,3 3.01,3l39.07 0zm327.61 37.47l-16.53 0 0 -114.41c0,-1.5 -1.51,-3 -3.01,-3l-28.55 0c-1.5,0 -3.01,1.5 -3.01,3l0 114.41 -42.58 0c-1.5,0 -3,-1.5 -3,-3l0 -111.41c0,-1.5 -1.5,-3 -3.01,-3l-28.55 0c-1.5,0 -3.01,1.5 -3.01,3l0 145.89c0,1.5 1.51,3 3.01,3l94.18 0c1.5,0 3,1.49 3,2.99l0 13.99c0,1.5 1.5,3 3.01,3l28.55 0c1.5,0 3,-1.5 3,-3l0 -48.46c-0.5,-2 -2,-3 -3.5,-3zm129.24 -10.49c0,-23.98 -10.02,-35.47 -19.04,-40.97 -10.01,-6.49 -21.54,-6.49 -27.55,-6.49l-24.04 0c-1.5,0 -3.01,-1.5 -3.01,-3l0 -53.46c0,-1.5 -1.5,-3 -3,-3l-28.56 0c-1.5,0 -3,1.5 -3,3l0 147.39c0,1.5 1.5,2.99 3,2.99l58.61 0c28.56,-0.5 46.59,-18.48 46.59,-46.46zm-73.14 -10.49c0,-1.5 1.51,-3 3.01,-3l24.04 0c3.01,0 7.52,0 9.52,1.5 1.5,1 3.01,4.49 3.01,11.99 0,6.49 -1,11.49 -12.03,11.49l-24.54 0c-1.5,0 -3.01,-1.5 -3.01,-3l0 -18.98zm118.72 51.96l0 -144.39c0,-2.5 -1.5,-4.5 -3,-4.5l-28.55 0c-1.51,0 -3.01,2 -3.01,4.5l0 144.39c0,2.5 1.5,4.49 3.01,4.49l28.55 0c2,0 3,-1.99 3,-4.49z"/>
        <path class="fil0"
              d="M366.63 229.4l0 28.48c0,1.5 -1.5,3 -3,3l-105.7 0c-1.5,0 -3.01,-1.5 -3.01,-3l0 -28.48c0,-1.5 1.51,-3 3.01,-3l105.7 0c1.5,0 3,1.5 3,3z"/>
        <path class="fil1"
              d="M366.63 302.6l0 -86.45c0,1.5 -1.5,3 -3,3l-105.7 0c-1.5,0 -3.01,-1.5 -3.01,-3l0 -28.47c0,-1.5 1.51,-3 3.01,-3l105.7 0c1.5,0 3,1.5 3,3l0 114.92z"/>
        <path class="fil2"
              d="M367.53 259.84l0 -86.44c0,1.5 -1.5,2.99 -3.01,2.99l-105.7 0c-1.5,0 -3,-1.49 -3,-2.99l0 -28.48c0,-1.5 1.5,-3 3,-3l105.7 0c1.51,0 3.01,1.5 3.01,3l0 114.92z"/>
        <path class="fil3"
              d="M367.53 217.55l0 -86.45c0,1.5 -1.5,3 -3.01,3l-105.7 0c-1.5,0 -3,-1.5 -3,-3l0 -28.48c0,-1.49 1.5,-2.99 3,-2.99l105.7 0c1.51,0 3.01,1.5 3.01,2.99l0 114.93z"/>
        <path class="fil4"
              d="M367.53 174.34l0 -86.45c0,1.5 -1.5,3 -3.01,3l-105.7 0c-1.5,0 -3,-1.5 -3,-3l0 -28.48c0,-1.49 1.5,-2.99 3,-2.99l105.7 0c1.51,0 3.01,1.5 3.01,2.99l0 114.93z"/>
 </g>
</svg>
