<svg width="170" height="40" viewBox="0 0 170 40" fill="none" xmlns="http://www.w3.org/2000/svg">
    <style>
        .logo__orange {
        animation-name: orange;
        animation-duration: 1s;
        animation-timing-function: linear;
        animation-iteration-count: infinite;
        //animation-direction: alternate;
        }
        .logo__green {
        animation-name: green;
        animation-duration: 1s;
        animation-timing-function: linear;
        //animation-direction: alternate;
        animation-iteration-count: infinite;
        }
        @keyframes green {
        0% {    opacity: 0;  }
        25% {    opacity: 0;   }
        45% { opacity: 1;}
        55% { opacity: 1;}
        75% { opacity: 0;}
        100% {    opacity: 0;   }
        }
        @keyframes orange {
        0% {    opacity: 0;  }
        10% {    opacity: 0;  }
        15% { opacity: 1;}
        85% { opacity: 1;}
        90% {    opacity: 0;  }
        100% {    opacity: 0;  }
        }
    </style>
    <g>
        <text>ресторан клуб</text>
        <path d="M87 34.3333V27.6667C87 27.2667 86.8 27 86.5 27H69.5C69.2 27 69 27.2667 69 27.6667V34.3333C69 34.7333 69.2 35 69.5 35H86.6C86.8 35 87 34.6 87 34.3333Z"
              fill="white"/>
        <path d="M33.8179 4.71397V10.4666C33.8179 10.7694 33.5151 11.0721 33.2123 11.0721H25.744V33.9817C25.744 34.2844 25.4412 34.5872 25.1385 34.5872H19.4868C19.184 34.5872 18.8812 34.2844 18.8812 33.9817V10.9712H10.6055C10.3028 10.9712 10 10.6684 10 10.3657V4.71397C10 4.4112 10.3028 4.10843 10.6055 4.10843H33.2123C33.5151 4.10843 33.8179 4.4112 33.8179 4.71397Z"
              fill="white"/>
        <path d="M49.7354 3.09918C45.1939 3.09918 41.6616 5.31949 39.845 9.25549C38.533 11.9804 38.3311 14.9072 38.3311 16.3201V33.8807C38.3311 34.1835 38.6339 34.4863 38.9367 34.4863H44.6893C44.992 34.4863 45.2948 34.1835 45.2948 33.8807V27.6235C45.2948 27.3207 45.5976 27.018 45.9003 27.018H53.7724C54.0751 27.018 54.3779 27.3207 54.3779 27.6235V33.8807C54.3779 34.1835 54.6807 34.4863 54.9834 34.4863H60.5342C60.837 34.4863 61.1397 34.1835 61.1397 33.8807V16.7238C61.0388 8.14534 56.8 3.09918 49.7354 3.09918ZM54.0751 19.6506C54.0751 19.9533 53.8733 20.2561 53.5705 20.2561H45.6985C45.3957 20.2561 45.093 19.9533 45.093 19.6506V16.3201C45.093 15.7146 45.1939 13.797 45.9003 12.1823C46.6068 10.5675 47.717 9.96195 49.5336 9.96195C50.8456 9.96195 54.0751 9.96195 54.0751 16.7238V18.6333V19.6506Z"
              fill="white"/>
        <path d="M121.334 27.8254H118.004V4.71397C118.004 4.4112 117.701 4.10843 117.398 4.10843H111.646C111.343 4.10843 111.04 4.4112 111.04 4.71397V27.8254H102.563C102.26 27.8254 101.957 27.5226 101.957 27.2198V4.71397C101.957 4.4112 101.654 4.10843 101.352 4.10843H95.5989C95.2962 4.10843 94.9934 4.4112 94.9934 4.71397V34.1835C94.9934 34.4863 95.2962 34.7891 95.5989 34.7891H114.371C114.673 34.7891 114.976 35.0918 114.976 35.3946V38.2204C114.976 38.5232 115.279 38.826 115.582 38.826H121.334C121.637 38.826 121.94 38.5232 121.94 38.2204V28.4309C121.839 28.1281 121.637 27.8254 121.334 27.8254Z"
              fill="white"/>
        <path d="M146.174 17.5312C144.155 16.2192 141.834 16.2192 140.623 16.2192H135.778C135.476 16.2192 135.173 15.9164 135.173 15.6137V4.71397C135.173 4.4112 134.87 4.10843 134.567 4.10843H128.815C128.512 4.10843 128.209 4.4112 128.209 4.71397V34.4863C128.209 34.7891 128.512 35.0918 128.815 35.0918H140.623C146.274 35.0918 149.908 31.4586 149.908 25.8069C150.009 20.9626 147.889 18.6414 146.174 17.5312ZM140.623 28.1281H135.678C135.375 28.1281 135.072 27.8254 135.072 27.5226V23.5866C135.072 23.2838 135.375 22.9811 135.678 22.9811H140.522C141.127 22.9811 142.036 22.9811 142.439 23.2838C142.742 23.4857 143.045 24.1921 143.045 25.706C143.045 27.1189 142.944 28.1281 140.623 28.1281Z"
              fill="white"/>
        <path d="M160 34.1835V5.01674C160 4.51212 159.697 4.10843 159.394 4.10843H153.743C153.44 4.10843 153.137 4.51212 153.137 5.01674V34.1835C153.137 34.6881 153.44 35.0918 153.743 35.0918H159.495C159.798 34.9909 160 34.5872 160 34.1835Z"
              fill="white"/>
    </g>

    <g>
        <path class="logo__orange"
              d="M86.5028 24H69.4972C69.1989 24 69 23.7333 69 23.3333V16.6667C69 16.2667 69.1989 16 69.4972 16H86.5028C86.8011 16 87 16.2667 87 16.6667V23.3333C86.9006 23.7333 86.7017 24 86.5028 24Z"
              fill="#F59B1B"/>
        <path class="logo__green"
              d="M86.5028 13H69.4972C69.1989 13 69 12.7377 69 12.3443V5.65574C69 5.2623 69.1989 5 69.4972 5H86.5028C86.8011 5 87 5.2623 87 5.65574V12.3443C86.9006 12.6066 86.7017 13 86.5028 13Z"
              fill="#A0C519"/>
    </g>

</svg>
