<?xml version="1.0" encoding="UTF-8"?>
<!DOCTYPE svg PUBLIC "-//W3C//DTD SVG 1.1//EN" "http://www.w3.org/Graphics/SVG/1.1/DTD/svg11.dtd">
<!-- Creator: CorelDRAW 2019 (64-Bit) -->
<svg xmlns="http://www.w3.org/2000/svg" xml:space="preserve" width="700px" height="249px" version="1.1" style="shape-rendering:geometricPrecision; text-rendering:geometricPrecision; image-rendering:optimizeQuality; fill-rule:evenodd; clip-rule:evenodd"
viewBox="0 0 700 249"
 xmlns:xlink="http://www.w3.org/1999/xlink">
 <defs>
  <style type="text/css">
   <![CDATA[
    .str0 {
  stroke: #FEFEFE;
  stroke-width: 0.9;
  stroke-miterlimit: 22.9256; }

.fil4 {
  fill: #A7D331; }

.fil1 {
  fill: #F6603F; }

.fil2 {
  fill: #FAA63A; }

.fil3 {
  fill: #FBEA2A; }

.fil_110 {
  fill: #FEFEFE;
  fill-rule: nonzero; }

.fil0 {
  fill: white; }

.fil1 {
  -webkit-animation-name: fil1;
          animation-name: fil1;
  -webkit-animation-duration: 1.2s;
          animation-duration: 1.2s;
  -webkit-animation-timing-function: linear;
          animation-timing-function: linear;
  -webkit-animation-iteration-count: infinite;
          animation-iteration-count: infinite; }

.fil2 {
  -webkit-animation-name: fil2;
          animation-name: fil2;
  -webkit-animation-duration: 1.2s;
          animation-duration: 1.2s;
  -webkit-animation-timing-function: linear;
          animation-timing-function: linear;
  -webkit-animation-iteration-count: infinite;
          animation-iteration-count: infinite; }

.fil3 {
  -webkit-animation-name: fil3;
          animation-name: fil3;
  -webkit-animation-duration: 1.2s;
          animation-duration: 1.2s;
  -webkit-animation-timing-function: linear;
          animation-timing-function: linear;
  -webkit-animation-iteration-count: infinite;
          animation-iteration-count: infinite; }

.fil4 {
  -webkit-animation-name: fil4;
          animation-name: fil4;
  -webkit-animation-duration: 1.2s;
          animation-duration: 1.2s;
  -webkit-animation-timing-function: linear;
          animation-timing-function: linear;
  -webkit-animation-iteration-count: infinite;
          animation-iteration-count: infinite; }

@-webkit-keyframes fil1 {
  0% {
    opacity: 0; }
  10% {
    opacity: 0; }
  20% {
    opacity: 1; }
  30% {
    opacity: 1; }
  40% {
    opacity: 1; }
  50% {
    opacity: 1; }
  60% {
    opacity: 1; }
  70% {
    opacity: 1; }
  80% {
    opacity: 1; }
  90% {
    opacity: 0; }
  100% {
    opacity: 0; } }

@keyframes fil1 {
  0% {
    opacity: 0; }
  10% {
    opacity: 0; }
  20% {
    opacity: 1; }
  30% {
    opacity: 1; }
  40% {
    opacity: 1; }
  50% {
    opacity: 1; }
  60% {
    opacity: 1; }
  70% {
    opacity: 1; }
  80% {
    opacity: 1; }
  90% {
    opacity: 0; }
  100% {
    opacity: 0; } }

@-webkit-keyframes fil2 {
  0% {
    opacity: 0; }
  10% {
    opacity: 0; }
  20% {
    opacity: 0; }
  30% {
    opacity: 1; }
  40% {
    opacity: 1; }
  50% {
    opacity: 1; }
  60% {
    opacity: 1; }
  70% {
    opacity: 1; }
  80% {
    opacity: 0; }
  90% {
    opacity: 0; }
  100% {
    opacity: 0; } }

@keyframes fil2 {
  0% {
    opacity: 0; }
  10% {
    opacity: 0; }
  20% {
    opacity: 0; }
  30% {
    opacity: 1; }
  40% {
    opacity: 1; }
  50% {
    opacity: 1; }
  60% {
    opacity: 1; }
  70% {
    opacity: 1; }
  80% {
    opacity: 0; }
  90% {
    opacity: 0; }
  100% {
    opacity: 0; } }

@-webkit-keyframes fil3 {
  0% {
    opacity: 0; }
  10% {
    opacity: 0; }
  20% {
    opacity: 0; }
  30% {
    opacity: 0; }
  40% {
    opacity: 1; }
  50% {
    opacity: 1; }
  60% {
    opacity: 1; }
  70% {
    opacity: 0; }
  80% {
    opacity: 0; }
  90% {
    opacity: 0; }
  100% {
    opacity: 0; } }

@keyframes fil3 {
  0% {
    opacity: 0; }
  10% {
    opacity: 0; }
  20% {
    opacity: 0; }
  30% {
    opacity: 0; }
  40% {
    opacity: 1; }
  50% {
    opacity: 1; }
  60% {
    opacity: 1; }
  70% {
    opacity: 0; }
  80% {
    opacity: 0; }
  90% {
    opacity: 0; }
  100% {
    opacity: 0; } }

@-webkit-keyframes fil4 {
  0% {
    opacity: 0; }
  10% {
    opacity: 0; }
  20% {
    opacity: 0; }
  30% {
    opacity: 0; }
  40% {
    opacity: 0; }
  50% {
    opacity: 1; }
  60% {
    opacity: 0; }
  70% {
    opacity: 0; }
  80% {
    opacity: 0; }
  90% {
    opacity: 0; }
  100% {
    opacity: 0; } }

@keyframes fil4 {
  0% {
    opacity: 0; }
  10% {
    opacity: 0; }
  20% {
    opacity: 0; }
  30% {
    opacity: 0; }
  40% {
    opacity: 0; }
  50% {
    opacity: 1; }
  60% {
    opacity: 0; }
  70% {
    opacity: 0; }
  80% {
    opacity: 0; }
  90% {
    opacity: 0; }
  100% {
    opacity: 0; } }

/*# sourceMappingURL=logs.css.map */

   ]]>
  </style>
 </defs>
 <g id="Слой_x0020_1">
  <metadata id="CorelCorpID_0Corel-Layer"/>
  <path class="fil0 str0" d="M394.74 47.84l-2.55 0 0 -24.1 10.12 0c2.39,0 4.27,0.61 5.65,1.83 1.37,1.21 2.06,2.83 2.06,4.85 0,2.07 -0.69,3.71 -2.06,4.94 -1.38,1.23 -3.26,1.84 -5.65,1.84l-7.57 0 0 10.64zm0 -21.79l0 8.85 7.4 0c1.7,0 3.02,-0.39 3.96,-1.16 0.94,-0.77 1.41,-1.85 1.41,-3.25 0,-1.42 -0.47,-2.52 -1.4,-3.29 -0.93,-0.77 -2.25,-1.15 -3.97,-1.15l-7.4 0zm37.38 21.79l-17.04 0 0 -24.1 16.53 0 0 2.31 -13.98 0 0 7.71 11.46 0 0 2.31 -11.46 0 0 9.46 14.49 0 0 2.31zm15.84 0.41c-3.51,0 -6.46,-1.17 -8.85,-3.51 -2.34,-2.34 -3.51,-5.32 -3.51,-8.95 0,-3.6 1.17,-6.57 3.51,-8.92 2.37,-2.36 5.32,-3.54 8.85,-3.54 2.62,0 4.87,0.6 6.75,1.79l0 2.62c-2.11,-1.36 -4.35,-2.04 -6.72,-2.04 -2.75,0 -5.08,0.97 -6.98,2.9 -1.89,1.88 -2.83,4.28 -2.83,7.19 0,2.94 0.94,5.35 2.83,7.23 1.9,1.91 4.25,2.86 7.05,2.86 2.8,0 5.19,-0.81 7.16,-2.41l0 2.65c-1.97,1.42 -4.39,2.13 -7.26,2.13zm21.07 -0.41l-2.55 0 0 -21.79 -8.3 0 0 -2.31 19.25 0 0 2.31 -8.4 0 0 21.79zm13.49 -20.93c2.32,-2.39 5.21,-3.58 8.68,-3.58 3.44,0 6.32,1.19 8.64,3.58 2.32,2.39 3.48,5.35 3.48,8.88 0,3.56 -1.16,6.53 -3.48,8.92 -2.29,2.36 -5.17,3.54 -8.64,3.54 -3.49,0 -6.38,-1.18 -8.68,-3.54 -2.29,-2.37 -3.44,-5.34 -3.44,-8.92 0,-3.56 1.15,-6.52 3.44,-8.88zm1.9 16.08c1.81,1.92 4.07,2.89 6.78,2.89 2.71,0 4.97,-0.97 6.78,-2.89 1.84,-1.95 2.76,-4.35 2.76,-7.2 0,-2.84 -0.92,-5.24 -2.76,-7.19 -1.81,-1.93 -4.07,-2.9 -6.78,-2.9 -2.71,0 -4.97,0.97 -6.78,2.9 -1.84,1.95 -2.76,4.35 -2.76,7.19 0,2.85 0.92,5.25 2.76,7.2zm27.3 4.85l-2.55 0 0 -24.1 10.12 0c2.39,0 4.27,0.61 5.65,1.83 1.38,1.21 2.06,2.83 2.06,4.85 0,2.07 -0.68,3.71 -2.06,4.94 -1.38,1.23 -3.26,1.84 -5.65,1.84l-7.57 0 0 10.64zm0 -21.79l0 8.85 7.4 0c1.7,0 3.02,-0.39 3.96,-1.16 0.94,-0.77 1.41,-1.85 1.41,-3.25 0,-1.42 -0.46,-2.52 -1.39,-3.29 -0.93,-0.77 -2.26,-1.15 -3.98,-1.15l-7.4 0zm18.11 21.79l-2.65 0 10.74 -24.24 2.37 0 10.78 24.24 -2.69 0 -2.99 -6.64 -12.64 0 -2.92 6.64zm9.26 -21.03l-5.48 12.15 10.95 0 -5.47 -12.15zm18.93 21.03l-2.54 0 0 -24.1 2.54 0 0 10.02 14.32 0 0 -10.02 2.55 0 0 24.1 -2.55 0 0 -11.77 -14.32 0 0 11.77zm33.36 -8.19l-9.67 0 0 -2.31 9.67 0 0 2.31zm6.85 -15.91l2.55 0 0 10.47 11.16 -10.47 3.37 0 -11.84 11.02 13.66 13.08 -3.58 0 -12.77 -12.26 0 12.26 -2.55 0 0 -24.1zm20.49 24.1l0 -2.34c0.23,0.05 0.55,0.07 0.96,0.07 1.06,0 1.9,-0.37 2.53,-1.1 0.63,-0.74 1.14,-1.8 1.53,-3.2 0.28,-0.95 0.46,-1.98 0.55,-3.1 0.14,-1.29 0.25,-2.51 0.31,-3.65 0.05,-0.85 0.1,-2.25 0.14,-4.2l0.14 -6.58 15.08 0 0 24.1 -2.55 0 0 -21.79 -10.05 0 -0.17 5.51c-0.14,4.52 -0.49,7.91 -1.04,10.19 -0.48,2.06 -1.23,3.58 -2.25,4.56 -1.02,0.97 -2.43,1.5 -4.22,1.56 -0.53,0 -0.85,-0.01 -0.96,-0.03zm30.71 0.41c-1.24,0 -2.25,-0.16 -3.03,-0.48l0 -2.37c0.82,0.32 1.7,0.48 2.61,0.48 1.22,0 2.21,-0.51 2.96,-1.52 0.37,-0.48 0.69,-0.96 0.97,-1.44 0.16,-0.28 0.48,-0.9 0.96,-1.86l-9.71 -17.32 2.83 0 8.12 14.7 6.78 -14.7 2.72 0 -8.88 19.01c-0.92,1.95 -1.89,3.35 -2.91,4.21 -1.02,0.86 -2.16,1.29 -3.42,1.29zm29.4 -0.41l-9.85 0 0 -24.1 16.46 0 0 2.31 -13.91 0 0 6.82 7.3 0c2.68,0 4.77,0.68 6.26,2.06 1.52,1.38 2.28,3.19 2.28,5.44 0,2.27 -0.76,4.09 -2.28,5.44 -1.51,1.35 -3.6,2.03 -6.26,2.03zm-7.3 -12.67l0 10.36 7.06 0c1.97,0 3.5,-0.45 4.59,-1.36 1.09,-0.9 1.64,-2.18 1.64,-3.83 0,-1.63 -0.55,-2.9 -1.64,-3.81 -1.09,-0.91 -2.62,-1.36 -4.59,-1.36l-7.06 0z"/>
 </g>
 <g id="Слой_x0020_1_0">
  <metadata id="CorelCorpID_1Corel-Layer"/>
  <path class="fil0" d="M120.42 74.64l0 27.24c0,1.42 -1.43,2.86 -2.87,2.86l-35.45 0 0 108.47c0,1.43 -1.43,2.86 -2.88,2.86l-26.82 0c-1.44,0 -2.87,-1.43 -2.87,-2.86l0 -108.95 -39.29 0c-1.43,0 -2.88,-0.96 -2.88,-2.86l0 -26.76c0,-1.43 1.45,-2.87 2.88,-2.87l107.31 0c1.44,0 2.87,0.96 2.87,2.87l0 0zm120.73 56.38l0 81.71c0,1.43 -1.44,2.87 -2.88,2.87l-27.3 0c-1.44,0 -2.88,-1.44 -2.88,-2.87l0 -29.63c0,-1.43 -1.43,-2.87 -2.87,-2.87l-37.37 0c-1.44,0 -2.87,1.44 -2.87,2.87l0 29.63c0,1.43 -1.44,2.87 -2.88,2.87l-27.3 0c-1.44,0 -2.88,-1.44 -2.88,-2.87l0 -83.15c0,-6.68 0.96,-20.54 7.19,-33.44 8.62,-19.11 25.39,-29.15 46.95,-29.15 34.97,-0.48 55.09,23.89 55.09,64.03l0 0zm-35.45 17.2c1.43,0 2.88,-1.43 2.88,-2.87l0 -13.85c0,-32.01 -14.86,-32.01 -21.57,-32.01 -8.61,0 -13.88,3.34 -17.24,10.51 -3.83,7.64 -4.31,17.2 -4.31,19.58l0 15.77c0,1.44 1.43,2.87 2.88,2.87l37.36 0 0 0zm313.31 35.84l-15.81 0 0 -109.42c0,-1.43 -1.44,-2.87 -2.88,-2.87l-27.3 0c-1.44,0 -2.88,1.44 -2.88,2.87l0 109.42 -40.72 0c-1.44,0 -2.87,-1.44 -2.87,-2.87l0 -106.55c0,-1.43 -1.44,-2.87 -2.88,-2.87l-27.3 0c-1.44,0 -2.88,1.44 -2.88,2.87l0 139.52c0,1.44 1.44,2.87 2.88,2.87l90.07 0c1.43,0 2.87,1.43 2.87,2.86l0 13.38c0,1.44 1.43,2.87 2.87,2.87l27.31 0c1.43,0 2.87,-1.43 2.87,-2.87l0 -46.34c-0.48,-1.92 -1.92,-2.87 -3.35,-2.87zm123.6 -10.04c0,-22.93 -9.58,-33.92 -18.21,-39.18 -9.57,-6.2 -20.6,-6.2 -26.35,-6.2l-22.99 0c-1.43,0 -2.88,-1.44 -2.88,-2.87l0 -51.13c0,-1.43 -1.43,-2.87 -2.87,-2.87l-27.31 0c-1.43,0 -2.87,1.44 -2.87,2.87l0 140.96c0,1.43 1.44,2.86 2.87,2.86l56.05 0c27.31,-0.48 44.56,-17.68 44.56,-44.44l0 0zm-69.95 -10.03c0,-1.43 1.44,-2.87 2.88,-2.87l22.99 0c2.88,0 7.19,0 9.1,1.44 1.44,0.95 2.88,4.29 2.88,11.46 0,6.21 -0.95,10.99 -11.5,10.99l-23.47 0c-1.44,0 -2.88,-1.43 -2.88,-2.87l0 -18.15zm113.54 49.69l0 -138.08c0,-2.39 -1.44,-4.31 -2.87,-4.31l-27.3 0c-1.45,0 -2.88,1.92 -2.88,4.31l0 138.08c0,2.39 1.43,4.3 2.88,4.3l27.3 0c1.91,0 2.87,-1.91 2.87,-4.3z"/>
  <path class="fil0" d="M371.93 186.45l0 27.23c0,1.44 -1.43,2.87 -2.87,2.87l-101.08 0c-1.44,0 -2.88,-1.43 -2.88,-2.87l0 -27.23c0,-1.44 1.44,-2.87 2.88,-2.87l101.08 0c1.44,0 2.87,1.43 2.87,2.87z"/>
  <path class="fil1" d="M371.93 256.45l0 -82.67c0,1.43 -1.43,2.86 -2.87,2.86l-101.08 0c-1.44,0 -2.88,-1.43 -2.88,-2.86l0 -27.23c0,-1.44 1.44,-2.87 2.88,-2.87l101.08 0c1.44,0 2.87,1.43 2.87,2.87l0 109.9z"/>
  <path class="fil2" d="M372.79 215.56l0 -82.67c0,1.44 -1.43,2.86 -2.88,2.86l-101.08 0c-1.44,0 -2.87,-1.42 -2.87,-2.86l0 -27.23c0,-1.44 1.43,-2.87 2.87,-2.87l101.08 0c1.45,0 2.88,1.43 2.88,2.87l0 109.9z"/>
  <path class="fil3" d="M372.79 175.11l0 -82.67c0,1.43 -1.43,2.87 -2.88,2.87l-101.08 0c-1.44,0 -2.87,-1.44 -2.87,-2.87l0 -27.24c0,-1.42 1.43,-2.86 2.87,-2.86l101.08 0c1.45,0 2.88,1.44 2.88,2.86l0 109.92 0 -0.01z"/>
  <path class="fil4" d="M372.79 133.79l0 -82.68c0,1.44 -1.43,2.87 -2.88,2.87l-101.08 0c-1.44,0 -2.87,-1.43 -2.87,-2.87l0 -27.23c0,-1.43 1.43,-2.86 2.87,-2.86l101.08 0c1.45,0 2.88,1.43 2.88,2.86l0 109.91 0 0z"/>
 </g>
</svg>
