<svg width="700" height="289" viewBox="0 0 700 289" fill="none" xmlns="http://www.w3.org/2000/svg">
<path d="M144.045 86.9488V111.729C144.045 113.033 142.737 114.338 141.43 114.338H109.174V213.025C109.174 214.329 107.867 215.633 106.559 215.633H82.1495C80.8419 215.633 79.5342 214.329 79.5342 213.025V113.903H43.7918C42.4841 113.903 41.1765 113.033 41.1765 111.294V86.9488C41.1765 85.6446 42.4841 84.3403 43.7918 84.3403H141.43C142.737 84.3403 144.045 85.2098 144.045 86.9488ZM253.888 138.249V212.59C253.888 213.894 252.58 215.198 251.272 215.198H226.427C225.119 215.198 223.812 213.894 223.812 212.59V185.636C223.812 184.331 222.504 183.027 221.196 183.027H187.197C185.89 183.027 184.582 184.331 184.582 185.636V212.59C184.582 213.894 183.275 215.198 181.967 215.198H157.122C155.814 215.198 154.506 213.894 154.506 212.59V136.944C154.506 130.858 155.378 118.25 161.044 106.512C168.89 89.1225 184.146 79.9929 203.761 79.9929C235.581 79.5582 253.888 101.73 253.888 138.249ZM221.632 153.899C222.94 153.899 224.248 152.595 224.248 151.291V138.683C224.248 109.556 210.735 109.556 204.633 109.556C196.787 109.556 191.992 112.599 188.941 119.12C185.454 126.076 185.018 134.771 185.018 136.944V151.291C185.018 152.595 186.326 153.899 187.633 153.899H221.632ZM506.7 186.505H492.316V86.9488C492.316 85.6446 491.008 84.3403 489.701 84.3403H464.855C463.548 84.3403 462.24 85.6446 462.24 86.9488V186.505H425.19C423.882 186.505 422.575 185.201 422.575 183.897V86.9488C422.575 85.6446 421.267 84.3403 419.959 84.3403H395.114C393.806 84.3403 392.499 85.6446 392.499 86.9488V213.894C392.499 215.198 393.806 216.503 395.114 216.503H477.06C478.368 216.503 479.675 217.807 479.675 219.111V231.284C479.675 232.588 480.983 233.892 482.291 233.892H507.136C508.444 233.892 509.751 232.588 509.751 231.284V189.114C509.315 187.375 508.008 186.505 506.7 186.505ZM619.158 177.376C619.158 156.508 610.44 146.509 602.595 141.727C593.877 136.075 583.852 136.075 578.621 136.075H557.699C556.391 136.075 555.083 134.771 555.083 133.466V86.9488C555.083 85.6446 553.776 84.3403 552.468 84.3403H527.623C526.315 84.3403 525.007 85.6446 525.007 86.9488V215.198C525.007 216.503 526.315 217.807 527.623 217.807H578.621C603.466 217.372 619.158 201.721 619.158 177.376ZM555.519 168.246C555.519 166.942 556.827 165.637 558.134 165.637H579.057C581.672 165.637 585.595 165.637 587.339 166.942C588.646 167.811 589.954 170.854 589.954 177.376C589.954 183.027 589.082 187.375 579.493 187.375H558.134C556.827 187.375 555.519 186.07 555.519 184.766V168.246ZM658.824 213.459V87.8183C658.824 85.6446 657.516 83.9056 656.208 83.9056H631.363C630.055 83.9056 628.748 85.6446 628.748 87.8183V213.459C628.748 215.633 630.055 217.372 631.363 217.372H656.208C657.952 217.372 658.824 215.633 658.824 213.459Z" fill="white"/>
<path d="M372.884 188.679V213.459C372.884 214.764 371.576 216.068 370.269 216.068H278.297C276.989 216.068 275.682 214.764 275.682 213.459V188.679C275.682 187.375 276.989 186.07 278.297 186.07H370.269C371.576 186.07 372.884 187.375 372.884 188.679Z" fill="white"/>
<path d="M370.269 170.42H278.297C276.989 170.42 275.682 169.115 275.682 167.811V143.031C275.682 141.727 276.989 140.422 278.297 140.422H370.269C371.576 140.422 372.884 141.727 372.884 143.031V167.811C372.884 169.115 371.576 170.42 370.269 170.42ZM370.269 124.771H278.297C276.989 124.771 275.682 123.467 275.682 122.163V97.3826C275.682 96.0784 276.989 94.7742 278.297 94.7742H370.269C371.576 94.7742 372.884 96.0784 372.884 97.3826V122.163C372.884 123.902 371.576 124.771 370.269 124.771ZM370.704 79.5581H278.733C277.425 79.5581 276.118 78.2539 276.118 76.9497V52.1692C276.118 50.865 277.425 49.5608 278.733 49.5608H370.704C372.012 49.5608 373.32 50.865 373.32 52.1692V76.9497C373.32 78.6886 372.448 79.5581 370.704 79.5581ZM370.269 34.7795H278.297C276.989 34.7795 275.682 33.4753 275.682 32.171V7.39061C275.682 6.08638 276.989 4.78215 278.297 4.78215H370.269C371.576 4.78215 372.884 6.08638 372.884 7.39061V32.171C372.884 33.4753 371.576 34.7795 370.269 34.7795Z" fill="url(#paint0_linear)"/>
<defs>
<linearGradient id="paint0_linear" x1="324.608" y1="4.93648" x2="324.608" y2="170.41" gradientUnits="userSpaceOnUse">
<stop offset="0.0885417" stop-color="#A7D332"/>
<stop offset="0.364583" stop-color="#FEEB2B"/>
<stop offset="0.635417" stop-color="#FBAC3A"/>
<stop offset="0.916667" stop-color="#F6603F"/>
</linearGradient>
</defs>
</svg>
