<?xml version="1.0" encoding="UTF-8"?>
<!DOCTYPE svg PUBLIC "-//W3C//DTD SVG 1.1//EN" "http://www.w3.org/Graphics/SVG/1.1/DTD/svg11.dtd">
<!-- Creator: CorelDRAW 2019 (64-Bit) -->
<svg xmlns="http://www.w3.org/2000/svg" xml:space="preserve" width="210mm" height="210mm" version="1.1" style="shape-rendering:geometricPrecision; text-rendering:geometricPrecision; image-rendering:optimizeQuality; fill-rule:evenodd; clip-rule:evenodd"
viewBox="0 0 21000 21000"
 xmlns:xlink="http://www.w3.org/1999/xlink">
 <defs>
  <style type="text/css">
   <![CDATA[
    .str0 {stroke:#2B2A29;stroke-width:20;stroke-miterlimit:22.9256}
    .fil0 {fill:none}
   ]]>
  </style>
 </defs>
 <g id="Слой_x0020_1">
  <metadata id="CorelCorpID_0Corel-Layer"/>
  <rect class="fil0 str0" x="1772.74" y="18505.64" width="3285.12" height="1704.54"/>
  <rect class="fil0 str0" x="1772.97" y="16525.22" width="3285.12" height="1704.54"/>
  <rect class="fil0 str0" x="1759.62" y="14557.9" width="3285.12" height="1704.54"/>
  <rect class="fil0 str0" x="1781.56" y="11217.99" width="3285.12" height="1704.54"/>
  <rect class="fil0 str0" x="1781.79" y="9237.57" width="3285.12" height="1704.54"/>
  <rect class="fil0 str0" x="1768.44" y="7270.25" width="3285.12" height="1704.54"/>
  <rect class="fil0 str0" x="1733.16" y="3890.6" width="3285.12" height="1704.54"/>
  <rect class="fil0 str0" x="4908.15" y="257" width="3285.12" height="1704.54"/>
  <rect class="fil0 str0" transform="matrix(2.67069E-14 -1 1 2.67069E-14 2325.82 3498.26)" width="3285.12" height="1704.54"/>
  <rect class="fil0 str0" transform="matrix(2.67069E-14 -1 1 2.67069E-14 5783.04 5650.21)" width="3285.12" height="1704.54"/>
  <rect class="fil0 str0" x="11201.65" y="297.88" width="3285.12" height="1704.54"/>
  <rect class="fil0 str0" x="15999.43" y="297.88" width="3285.12" height="1704.54"/>
  <rect class="fil0 str0" x="16812.97" y="2825.82" width="1728.61" height="1728.61"/>
  <rect class="fil0 str0" x="16812.97" y="4907.22" width="1728.61" height="1728.61"/>
  <rect class="fil0 str0" x="16848.24" y="6988.6" width="1728.61" height="1728.61"/>
  <rect class="fil0 str0" x="12050.45" y="2931.66" width="1728.61" height="1728.61"/>
  <rect class="fil0 str0" x="12050.45" y="5013.06" width="1728.61" height="1728.61"/>
  <rect class="fil0 str0" x="12085.74" y="7094.44" width="1728.61" height="1728.61"/>
  <rect class="fil0 str0" x="16477.82" y="15296.53" width="3175" height="5256.39"/>
 </g>
</svg>
